<svg viewBox="0 0 64 64" xmlns="http://www.w3.org/2000/svg"><path d="M44 7H20A13 13 0 0 0 7 20v24a13 13 0 0 0 13 13h24a13 13 0 0 0 13-13V20A13 13 0 0 0 44 7ZM33 55V38a1 1 0 0 0-1-1h-5v-6h5a1 1 0 0 0 1-1v-8a5 5 0 0 1 5-5h8v6h-4a3 3 0 0 0-3 3v4a1 1 0 0 0 1 1h6v6h-6a1 1 0 0 0-1 1v17Zm22-11a11 11 0 0 1-11 11h-3V39h6a1 1 0 0 0 1-1v-8a1 1 0 0 0-1-1h-6v-3a1 1 0 0 1 1-1h5a1 1 0 0 0 1-1v-8a1 1 0 0 0-1-1h-9a7 7 0 0 0-7 7v7h-5a1 1 0 0 0-1 1v8a1 1 0 0 0 1 1h5v16H20A11 11 0 0 1 9 44V20A11 11 0 0 1 20 9h24a11 11 0 0 1 11 11Z" fill="#ffffff" class="fill-000000"></path></svg>