<svg xmlns="http://www.w3.org/2000/svg" viewBox="0 0 128 128" xml:space="preserve"><path fill="none" stroke="#ffffff" stroke-width="8" stroke-miterlimit="10" d="M111.609 42.725c-1.063-4.253-8.924-34.69-46.405-34.69-37.557 0-49.729 28.129-48.759 59.867.873 28.595 15.342 52.063 48.304 52.063 23.924 0 41.43-13.481 41.43-31.367 0-14.316-7.306-21.643-19.785-25.709-20.279-6.607-38.149-1.339-39.874 11.165-1.367 9.911 7.747 17.81 19.937 16.861 15.868-1.236 20.278-15.456 20.278-27.873 0-20.278-11.051-26.013-19.823-26.468-14.904-.774-20.203 9.228-20.203 9.228" class="stroke-000000"></path></svg>